<?xml version="1.0" encoding="UTF-8" standalone="no"?>
<svg width="30px" height="30px" viewBox="0 0 30 30" version="1.1" xmlns="http://www.w3.org/2000/svg" xmlns:xlink="http://www.w3.org/1999/xlink">
    <!-- Generator: Sketch 43.2 (39069) - http://www.bohemiancoding.com/sketch -->
    <title>close</title>
    <desc>Created with Sketch.</desc>
    <defs></defs>
    <g id="Page-1" stroke="none" stroke-width="1" fill="none" fill-rule="evenodd">
        <g id="close" fill-rule="nonzero" fill="#232323">
            <path d="M15.5,13.8070673 L4.04355052,2.35061784 C3.57606007,1.88312739 2.81810829,1.88312739 2.35061784,2.35061784 C1.88312739,2.81810829 1.88312739,3.57606007 2.35061784,4.04355052 L13.8070673,15.5 L2.35061784,26.9564495 C1.88312739,27.4239399 1.88312739,28.1818917 2.35061784,28.6493822 C2.81810829,29.1168726 3.57606007,29.1168726 4.04355052,28.6493822 L15.5,17.1929327 L26.9564495,28.6493822 C27.4239399,29.1168726 28.1818917,29.1168726 28.6493822,28.6493822 C29.1168726,28.1818917 29.1168726,27.4239399 28.6493822,26.9564495 L17.1929327,15.5 L28.6493822,4.04355052 C29.1168726,3.57606007 29.1168726,2.81810829 28.6493822,2.35061784 C28.1818917,1.88312739 27.4239399,1.88312739 26.9564495,2.35061784 L15.5,13.8070673 Z" id="Combined-Shape"></path>
        </g>
    </g>
</svg>