<svg width="28" height="28" viewBox="0 0 28 28" xmlns="http://www.w3.org/2000/svg">
    <title>Artboard 8 Copy 2</title>
    <path d="M15.85 4.008H9.31c-2.933 0-5.693 2.208-5.693 4.764 0 2.613 2 4.722 4.983 4.722.207 0 .409-.004.606-.018-.193.368-.332.783-.332 1.214 0 .726.393 1.314.89 1.795-.375 0-.738.01-1.134.01-3.632 0-6.428 2.3-6.428 4.683 0 2.347 3.065 3.815 6.698 3.815 4.141 0 6.428-2.334 6.428-4.682 0-1.882-.559-3.01-2.287-4.223-.591-.416-1.722-1.427-1.722-2.022 0-.696.2-1.04 1.256-1.859 1.081-.84 1.847-2.02 1.847-3.393 0-1.635-.733-3.229-2.109-3.754h2.075l1.463-1.052zm-2.284 15.898c.051.218.08.442.08.67 0 1.897-1.23 3.38-4.76 3.38-2.511 0-4.325-1.58-4.325-3.476 0-1.86 2.25-3.407 4.76-3.38.586.006 1.132.1 1.628.26 1.363.941 2.34 1.473 2.617 2.546zm-4.02-7.074c-1.686-.05-3.288-1.873-3.578-4.072-.291-2.199.839-3.882 2.524-3.832 1.684.05 3.287 1.815 3.578 4.013.29 2.2-.84 3.94-2.525 3.89zm12.968-4.167V4.008H20.95v4.657h-4.687v1.553h4.687v4.656h1.563v-4.656H27.2V8.665h-4.687z" fill="#f34a38" fill-rule="evenodd"/>
</svg>
