<svg width="28" height="28" viewBox="0 0 28 28" xmlns="http://www.w3.org/2000/svg">
    <title>Artboard 8 Copy 3</title>
    <path d="M25.326 15.822v8.074H20.54v-7.533c0-1.892-.692-3.184-2.425-3.184-1.322 0-2.109.87-2.455 1.712-.126.301-.158.72-.158 1.142v7.863h-4.787s.064-12.758 0-14.08h4.786v1.995l-.031.046h.031v-.046c.636-.958 1.772-2.326 4.314-2.326 3.149 0 5.51 2.012 5.51 6.337zM5.709 3.028C4.07 3.028 3 4.08 3 5.461c0 1.351 1.04 2.434 2.645 2.434h.032c1.67 0 2.707-1.083 2.707-2.434-.031-1.382-1.038-2.433-2.675-2.433zM3.284 23.896H8.07V9.816H3.284v14.08z" fill="#0077b5" fill-rule="evenodd"/>
</svg>
