<?xml version="1.0" encoding="UTF-8"?>
<svg width="32px" height="30px" viewBox="0 0 32 30" version="1.1" xmlns="http://www.w3.org/2000/svg" xmlns:xlink="http://www.w3.org/1999/xlink">
    <!-- Generator: Sketch 3.7 (28169) - http://www.bohemiancoding.com/sketch -->
    <title>newsletter</title>
    <desc>Created with Sketch.</desc>
    <defs></defs>
    <g id="Page-1" stroke="none" stroke-width="1" fill="none" fill-rule="evenodd">
        <g id="newsletter">
            <g id="Page-1">
                <g id="newsletter">
                    <g id="message-copy">
                        <polygon id="Path-4" points="5.45005121 14.3857769 6.15636071 4.08569956 26.1289025 4.16924124 26.3781682 14.6007439 19.2650841 19.6125652 16.0038862 17.5630773 13.0252801 19.8237966"></polygon>
                        <path d="M31.9755617,11.3376607 C31.9754992,11.2893718 31.9647492,11.2164368 31.9460617,11.1744192 C31.8968742,10.9954367 31.7875617,10.8319443 31.6239367,10.717807 L27.0431868,7.52271293 L27.0431868,4.09758818 C27.0431868,3.64354718 26.6761868,3.27529736 26.2236868,3.27529736 L20.9537495,3.27529736 L16.4698121,0.14730607 C16.1895621,-0.0484207199 15.8174996,-0.0492359869 15.5363746,0.145675536 L11.0234997,3.27529736 L5.77662486,3.27529736 C5.32399987,3.27529736 4.95712488,3.64354718 4.95712488,4.09758818 L4.95712488,7.48238857 L0.354124991,10.6745351 C0.127687497,10.8315681 0.00518749987,11.0826076 0.00131249997,11.3392913 C0.00106249997,11.3441201 0,11.3486982 0,11.3537152 L0.0244374994,29.1789007 C0.0247499994,29.3969533 0.111374997,29.6059752 0.265187493,29.7599979 C0.41881249,29.9137071 0.626937484,30 0.843937479,30 L0.845062479,30 L31.1816242,29.9581705 C31.6341242,29.9575434 32.0006242,29.5888546 31.9999992,29.1347509 L31.9755617,11.3376607 L31.9755617,11.3376607 Z M27.0431243,9.52569848 L29.6617493,11.3517711 L27.0431243,13.1784709 L27.0431243,9.52569848 L27.0431243,9.52569848 Z M16.0009371,1.823056 L18.082812,3.27523464 L13.9070622,3.27523464 L16.0009371,1.823056 L16.0009371,1.823056 Z M6.59612484,4.919879 L25.4041244,4.919879 L25.4041244,14.3218514 L19.0893745,18.7269271 L16.5147496,16.7230009 C16.5107496,16.7198652 16.5073121,16.7179211 16.5034371,16.715099 C16.2156871,16.4984889 15.8086871,16.4905243 15.5100621,16.7230009 L12.9167497,18.7414138 L6.59612484,14.3582249 L6.59612484,4.919879 L6.59612484,4.919879 L6.59612484,4.919879 Z M4.95712488,9.48148593 L4.95712488,13.22168 L2.26049994,11.3516457 L4.95712488,9.48148593 L4.95712488,9.48148593 Z M1.64112496,12.9221635 L11.5579372,19.7989405 L1.66112496,27.501583 L1.64112496,12.9221635 L1.64112496,12.9221635 Z M3.24218742,28.3521573 L16.0124371,18.4131747 L28.7368743,28.3169754 L3.24218742,28.3521573 L3.24218742,28.3521573 Z M20.4464995,19.7831996 L30.3387492,12.8825289 L30.3587492,27.4983219 L20.4464995,19.7831996 L20.4464995,19.7831996 Z" id="Shape" fill="#FFFFFF"></path>
                        <path d="M21.4056136,8.47826087 L15.7137557,8.47826087 L10.5943864,8.47826087 C10.1534995,8.47826087 9.79591837,8.77032655 9.79591837,9.13043478 C9.79591837,9.49054301 10.1534995,9.7826087 10.5943864,9.7826087 L21.4056136,9.7826087 C21.8466223,9.7826087 22.2040816,9.49054301 22.2040816,9.13043478 C22.2040816,8.77032655 21.8466223,8.47826087 21.4056136,8.47826087 L21.4056136,8.47826087 Z" id="Shape" fill="#FFFFFF"></path>
                        <path d="M21.4056136,13.0434783 L10.5943864,13.0434783 C10.1534995,13.0434783 9.79591837,13.3355439 9.79591837,13.6956522 C9.79591837,14.0557604 10.1534995,14.3478261 10.5943864,14.3478261 L21.4056136,14.3478261 C21.8466223,14.3478261 22.2040816,14.0557604 22.2040816,13.6956522 C22.2040816,13.3355439 21.8466223,13.0434783 21.4056136,13.0434783 L21.4056136,13.0434783 Z" id="Shape" fill="#FFFFFF"></path>
                    </g>
                </g>
            </g>
        </g>
    </g>
</svg>