<?xml version="1.0" encoding="UTF-8" standalone="no"?>
<svg width="63px" height="78px" viewBox="0 0 63 78" version="1.1" xmlns="http://www.w3.org/2000/svg" xmlns:xlink="http://www.w3.org/1999/xlink">
    <!-- Generator: Sketch 43.2 (39069) - http://www.bohemiancoding.com/sketch -->
    <title>quintype_logo</title>
    <desc>Created with Sketch.</desc>
    <defs></defs>
    <g id="Page-1" stroke="none" stroke-width="1" fill="#fff" fill-rule="evenodd">
        <g id="quintype_logo" fill="#fff">
            <path d="M62.3236796,62.0102629 L58.7939092,66.370182 C58.7939092,66.370182 54.7378784,58.7780215 44.9722154,61.3336983 C44.9722154,61.3336983 63.226561,49.6823608 61.4237405,29.7622981 C59.62092,9.84223547 44.9726357,-0.380892612 43.9959853,-0.982376798 C43.019335,-1.58365068 29.5219302,13.375219 15.5497561,17.2087343 C15.5497561,17.2087343 16.1832023,3.07680022 26.6915987,1.79896179 L26.6915987,-0.00507014978 C26.6915987,-0.00507014978 -0.0468059077,3.75336478 6.15405193e-05,35.4753463 C6.15405193e-05,35.4753463 1.03745044,63.1028189 28.3458305,64.2656183 C38.9376636,64.7167314 38.9504839,64.7167314 38.9504839,64.7167314 C38.9504839,64.7167314 47.8960716,64.2656183 49.6988921,76.8191821 L51.0542651,77.9466495 L63,62.6870377 L62.3236796,62.0102629 Z M14.5867667,36.527523 C14.5117367,28.7849915 15.161576,19.0504116 15.161576,19.0504116 L20.8068967,16.9832829 L20.8068967,50.9601992 L17.2649366,52.0876666 C17.2649366,52.0878769 14.6620068,44.2700546 14.5867667,36.527523 Z M40.1423462,62.2359246 C40.1423462,62.2359246 35.5150789,63.5890537 28.4538568,62.6117471 C21.3926347,61.6344404 17.5022162,53.4033607 17.5022162,53.4033607 L34.2576442,49.0057962 L34.2576442,8.11328389 L40.1423462,13.8261218 L40.1423462,62.2359246 Z M41.4033538,15.329622 C59.0574598,39.5343131 41.4033538,61.7848115 41.4033538,61.7848115 L41.4033538,15.329622 Z" id="Shape"></path>
        </g>
    </g>
</svg>
