<?xml version="1.0" encoding="UTF-8" standalone="no"?>
<svg width="30px" height="30px" viewBox="0 0 30 30" version="1.1" xmlns="http://www.w3.org/2000/svg" xmlns:xlink="http://www.w3.org/1999/xlink">
    <!-- Generator: Sketch 43.2 (39069) - http://www.bohemiancoding.com/sketch -->
    <title>search</title>
    <desc>Created with Sketch.</desc>
    <defs></defs>
    <g id="Page-1" stroke="none" stroke-width="1" fill="none" fill-rule="evenodd">
        <g id="search" fill="#000000">
            <path d="M11.7361056,23.4722113 C18.2177777,23.4722113 23.4722113,18.2177777 23.4722113,11.7361056 C23.4722113,5.25443346 18.2177777,0 11.7361056,0 C5.25443353,0 0,5.25443346 0,11.7361056 C0,18.2177777 5.25443353,23.4722113 11.7361056,23.4722113 Z M11.7361056,21.2007069 C6.50895063,21.2007069 2.27150432,16.9632606 2.27150432,11.7361056 C2.27150432,6.50895065 6.50895063,2.27150432 11.7361056,2.27150432 C16.9632606,2.27150432 21.2007069,6.50895065 21.2007069,11.7361056 C21.2007069,16.9632606 16.9632606,21.2007069 11.7361056,21.2007069 Z M19.1074048,20.8670058 C19.1074048,20.8670058 19.9902986,20.1919074 20.713601,19.2608096 C21.5208676,19.8224198 30,28.3938039 30,28.3938039 L28.3938039,30 L19.1074048,20.8670058 Z" id="search-blue"></path>
        </g>
    </g>
</svg>