<svg width="28" height="28" viewBox="0 0 28 28" xmlns="http://www.w3.org/2000/svg">
    <title>Artboard 8 Copy</title>
    <path d="M24.87 7.479a7.254 7.254 0 0 1-.561.648c-.195.2-.407.399-.634.598-.227.2-.454.383-.682.55v.15c0 .032.008.082.024.149a.663.663 0 0 1 .025.149v.2c0 1.562-.293 3.168-.877 4.814a13.481 13.481 0 0 1-2.583 4.414c-1.137 1.297-2.542 2.37-4.215 3.217-1.673.848-3.582 1.255-5.726 1.222a8.55 8.55 0 0 1-1.973-.125 23.364 23.364 0 0 1-1.876-.423 8.896 8.896 0 0 1-1.755-.674 76.36 76.36 0 0 1-1.656-.872.592.592 0 0 1 .292-.026c.097.017.195.026.292.026.098 0 .195.007.293.025a.592.592 0 0 0 .292-.025 5.755 5.755 0 0 0 1.608-.125c.52-.117 1.023-.25 1.51-.399a6.06 6.06 0 0 0 1.414-.649c.454-.283.893-.557 1.315-.823a8.422 8.422 0 0 1-1.486-.324 3.92 3.92 0 0 1-1.291-.698 5.461 5.461 0 0 1-.999-1.048 4.613 4.613 0 0 1-.658-1.372.3.3 0 0 0 .22.1c.08 0 .162.009.243.025.08.017.155.017.22 0a.267.267 0 0 1 .194.025.82.82 0 0 1 .341-.025.709.709 0 0 0 .317-.025c.114-.033.22-.05.317-.05a.52.52 0 0 0 .292-.1c-.552-.1-1.056-.299-1.51-.598a5.655 5.655 0 0 1-1.194-1.047 4.527 4.527 0 0 1-.804-1.397 4.747 4.747 0 0 1-.293-1.646v-.075c.163.108.333.2.512.25.178.049.357.107.536.174.178.066.357.108.536.125.178.016.366.041.56.074a8.252 8.252 0 0 1-.852-.798 4.626 4.626 0 0 1-.658-.948A5.195 5.195 0 0 1 3.5 9.025a4.85 4.85 0 0 1-.146-1.247c0-.166.016-.366.049-.599a5.296 5.296 0 0 1 .317-1.222c.081-.216.17-.39.268-.524a16.94 16.94 0 0 0 1.949 1.971c.715.615 1.486 1.13 2.314 1.546.829.416 1.698.757 2.607 1.023.91.266 1.853.415 2.827.449 0-.067-.008-.15-.025-.25a9.324 9.324 0 0 0-.049-.274 1.44 1.44 0 0 1-.023-.275v-.249c0-.698.12-1.33.365-1.895.244-.565.577-1.081.998-1.546a4.014 4.014 0 0 1 1.512-1.048 5.783 5.783 0 0 1 1.851-.4c.325.034.65.076.975.125.324.05.633.15.926.3.292.15.568.316.828.498.26.183.487.408.682.674.26-.1.52-.183.78-.25.26-.066.52-.15.78-.25.26-.098.503-.207.73-.323.227-.117.455-.258.683-.424a2.483 2.483 0 0 1-.317.848c-.146.232-.3.474-.463.724-.162.249-.357.456-.585.623a9.887 9.887 0 0 0-.682.549c.228-.067.463-.117.707-.15.243-.034.479-.092.706-.175.228-.083.446-.158.658-.224.21-.067.43-.15.658-.25-.162.25-.334.466-.512.699z" fill="#1da1f2" fill-rule="evenodd"/>
</svg>
