<?xml version="1.0" encoding="UTF-8"?>
<svg width="37px" height="37px" viewBox="0 0 37 37" version="1.1" xmlns="http://www.w3.org/2000/svg" xmlns:xlink="http://www.w3.org/1999/xlink">
    <!-- Generator: Sketch 48.2 (47327) - http://www.bohemiancoding.com/sketch -->
    <title>Group 19</title>
    <desc>Created with Sketch.</desc>
    <defs></defs>
    <g id="Page-1" stroke="none" stroke-width="1" fill="none" fill-rule="evenodd">
        <g id="Group-19" fill="#3B5998">
            <path d="M20.6750919,13.4025973 C20.5949363,13.4025973 20.5092314,13.428279 20.4161276,13.478475 C20.3230238,13.528671 20.2434847,13.5975446 20.1775105,13.6856795 C20.1109197,13.7732307 20.0578936,13.8800432 20.0184324,14.0055332 C19.9783546,14.1310233 19.958624,14.2693542 19.958624,14.4199422 L19.958624,16.4166932 L23.5804249,16.4166932 L23.5804249,19.242846 L19.958624,19.242846 L19.958624,27.7574919 L16.4959011,27.7574919 L16.4959011,19.242846 L13.3914122,19.242846 L13.3914122,16.4166932 L16.4959011,16.4166932 L16.4959011,14.721702 C16.4959011,14.1438641 16.6019531,13.5911242 16.8140572,13.0634823 C17.0261614,12.5364241 17.3184211,12.0718191 17.6896033,11.6696672 C18.061402,11.2680991 18.4991751,10.9540821 19.0029223,10.7276163 C19.5072862,10.5017342 20.064676,10.3885013 20.6750919,10.3885013 L23.5804249,10.3885013 L23.5804249,13.4025973 L20.6750919,13.4025973" id="fb"></path>
            <path d="M18.5735714,36.9678571 C8.63219693,36.9678571 0.573571406,28.9087342 0.573571406,18.9678571 C0.573571406,9.02698005 8.63219693,0.96785712 18.5735714,0.96785712 C28.5149459,0.96785712 36.5735714,9.02698005 36.5735714,18.9678571 C36.5735714,28.9087342 28.5149459,36.9678571 18.5735714,36.9678571 Z M18.5735714,34.907251 C27.3752497,34.907251 34.5108706,27.7711897 34.5108706,18.9678571 C34.5108706,10.1645245 27.3752497,3.02846322 18.5735714,3.02846322 C9.77189309,3.02846322 2.63627222,10.1645245 2.63627222,18.9678571 C2.63627222,27.7711897 9.77189309,34.907251 18.5735714,34.907251 Z" id="Oval-7" fill-rule="nonzero"></path>
        </g>
    </g>
</svg>