<?xml version="1.0" encoding="UTF-8"?>
<svg width="37px" height="37px" viewBox="0 0 37 37" version="1.1" xmlns="http://www.w3.org/2000/svg" xmlns:xlink="http://www.w3.org/1999/xlink">
    <!-- Generator: Sketch 48.2 (47327) - http://www.bohemiancoding.com/sketch -->
    <title>Group 20</title>
    <desc>Created with Sketch.</desc>
    <defs></defs>
    <g id="Page-1" stroke="none" stroke-width="1" fill="none" fill-rule="evenodd">
        <g id="Group-20" fill="#F34A38">
            <g id="Group" transform="translate(8.426873, 12.200000)">
                <path d="M7.53449994,8.20477823 L10.8896129,8.20477823 C10.300685,9.84834286 8.70565433,11.026732 6.83830253,11.013132 C4.57252112,10.9966177 2.69903027,9.20743129 2.61106833,6.97249796 C2.51677988,4.57681633 4.46389258,2.5981551 6.87030999,2.5981551 C7.97060745,2.5981551 8.97469507,3.01198367 9.73167386,3.69008707 C9.91097187,3.85074286 10.1839022,3.85176054 10.3602479,3.68791293 L11.5925585,2.54306122 C11.7852594,2.36399456 11.7859623,2.06160272 11.5938239,1.88193469 C10.3933332,0.759287075 8.78293149,0.0595346939 7.00705636,0.0253034014 C3.21930381,-0.047692517 0.0265713471,3.01781224 0.000187452186,6.75734966 C-0.0264307579,10.524966 3.05964141,13.5873714 6.87030999,13.5873714 C10.5349533,13.5873714 13.5286584,10.7550095 13.7291854,7.18713741 C13.7345278,7.14240544 13.7380425,5.63063129 13.7380425,5.63063129 L7.53449994,5.63063129 C7.28022106,5.63063129 7.07411738,5.83407619 7.07411738,6.08507483 L7.07411738,7.75033469 C7.07411738,8.00133333 7.28026792,8.20477823 7.53449994,8.20477823 Z" id="Shape"></path>
                <path d="M19.4230455,5.78185034 L19.4230455,4.1548 C19.4230455,3.93484082 19.2424353,3.75656054 19.0196015,3.75656054 L17.6322679,3.75656054 C17.4094341,3.75656054 17.228824,3.93484082 17.228824,4.1548 L17.228824,5.78185034 L15.58051,5.78185034 C15.3576763,5.78185034 15.1770661,5.96013061 15.1770661,6.1800898 L15.1770661,7.54952653 C15.1770661,7.76948571 15.3576763,7.94776599 15.58051,7.94776599 L17.228824,7.94776599 L17.228824,9.57481633 C17.228824,9.79477551 17.4094341,9.97305578 17.6322679,9.97305578 L19.0196015,9.97305578 C19.2424353,9.97305578 19.4230455,9.79477551 19.4230455,9.57481633 L19.4230455,7.94776599 L21.0713594,7.94776599 C21.2941932,7.94776599 21.4748034,7.76948571 21.4748034,7.54952653 L21.4748034,6.1800898 C21.4748034,5.96013061 21.2941932,5.78185034 21.0713594,5.78185034 L19.4230455,5.78185034 L19.4230455,5.78185034 Z" id="Shape"></path>
            </g>
            <path d="M18.6020551,36.9678571 C8.66068067,36.9678571 0.602055148,28.9087342 0.602055148,18.9678571 C0.602055148,9.02698005 8.66068067,0.96785712 18.6020551,0.96785712 C28.5434296,0.96785712 36.6020551,9.02698005 36.6020551,18.9678571 C36.6020551,28.9087342 28.5434296,36.9678571 18.6020551,36.9678571 Z M18.6020551,34.907251 C27.4037335,34.907251 34.5393543,27.7711897 34.5393543,18.9678571 C34.5393543,10.1645245 27.4037335,3.02846322 18.6020551,3.02846322 C9.80037683,3.02846322 2.66475597,10.1645245 2.66475597,18.9678571 C2.66475597,27.7711897 9.80037683,34.907251 18.6020551,34.907251 Z" id="Oval-7-Copy" fill-rule="nonzero"></path>
        </g>
    </g>
</svg>