<svg xmlns="http://www.w3.org/2000/svg" width="22" height="20" viewBox="0 0 22 20">
    <path fill="#5F5F5F" fill-rule="evenodd" d="M12.011 0H6.255c-2.581 0-5.01 2.104-5.01 4.54 0 2.49 1.76 4.5 4.385 4.5.182 0 .36-.003.534-.017-.17.351-.293.747-.293 1.157 0 .692.346 1.253.784 1.711-.33 0-.65.01-.998.01C2.46 11.901 0 14.092 0 16.363 0 18.601 2.697 20 5.894 20c3.644 0 5.657-2.225 5.657-4.462 0-1.794-.492-2.868-2.013-4.025-.52-.397-1.515-1.36-1.515-1.927 0-.664.176-.991 1.105-1.772.952-.8 1.625-1.925 1.625-3.234 0-1.558-.644-3.077-1.855-3.578h1.825L12.011 0zm-2.01 15.152c.045.207.07.42.07.639 0 1.807-1.083 3.22-4.189 3.22-2.21 0-3.805-1.505-3.805-3.313 0-1.771 1.98-3.246 4.189-3.22a4.5 4.5 0 0 1 1.432.247c1.2.897 2.06 1.404 2.303 2.427zM6.463 8.409C4.98 8.362 3.57 6.624 3.314 4.53c-.256-2.096.739-3.7 2.221-3.652 1.483.048 2.893 1.73 3.15 3.825.255 2.095-.74 3.755-2.222 3.707zm11.412-3.97V0H16.5v4.438h-4.125v1.48H16.5v4.438h1.375V5.918H22v-1.48h-4.125z"/>
</svg>
