<?xml version="1.0" encoding="UTF-8"?>
<svg width="37px" height="37px" viewBox="0 0 37 37" version="1.1" xmlns="http://www.w3.org/2000/svg" xmlns:xlink="http://www.w3.org/1999/xlink">
    <!-- Generator: Sketch 48.2 (47327) - http://www.bohemiancoding.com/sketch -->
    <title>Group 23</title>
    <desc>Created with Sketch.</desc>
    <defs></defs>
    <g id="Page-1" stroke="none" stroke-width="1" fill="none" fill-rule="evenodd">
        <g id="Group-23" fill="#E1306C" fill-rule="nonzero">
            <path d="M18.5735714,36.9678571 C8.63219693,36.9678571 0.573571406,28.9087342 0.573571406,18.9678571 C0.573571406,9.02698005 8.63219693,0.96785712 18.5735714,0.96785712 C28.5149459,0.96785712 36.5735714,9.02698005 36.5735714,18.9678571 C36.5735714,28.9087342 28.5149459,36.9678571 18.5735714,36.9678571 Z M18.5735714,34.907251 C27.3752497,34.907251 34.5108706,27.7711897 34.5108706,18.9678571 C34.5108706,10.1645245 27.3752497,3.02846322 18.5735714,3.02846322 C9.77189309,3.02846322 2.63627222,10.1645245 2.63627222,18.9678571 C2.63627222,27.7711897 9.77189309,34.907251 18.5735714,34.907251 Z" id="Oval-7"></path>
            <g id="instagram-(2)" transform="translate(11.000000, 11.000000)">
                <path d="M11.2138551,0 L4.75814493,0 C2.13449275,0 2.27373675e-13,2.13449275 2.27373675e-13,4.75814493 L2.27373675e-13,11.2138551 C2.27373675e-13,13.8375073 2.13449275,15.972 4.75814493,15.972 L11.2138551,15.972 C13.8375073,15.972 15.972,13.8375073 15.972,11.2138551 L15.972,4.75814493 C15.971971,2.13449275 13.8374783,0 11.2138551,0 Z M14.3652174,11.2138551 C14.3652174,12.9542898 12.9542898,14.3652174 11.2138551,14.3652174 L4.75814493,14.3652174 C3.01771015,14.3652174 1.60678261,12.9542898 1.60678261,11.2138551 L1.60678261,4.75814493 C1.60678261,3.01768116 3.01771015,1.60678261 4.75814493,1.60678261 L11.2138551,1.60678261 C12.9542898,1.60678261 14.3652174,3.01768116 14.3652174,4.75814493 L14.3652174,11.2138551 Z" id="XMLID_17_"></path>
                <path d="M7.986,3.85507246 C5.7082029,3.85507246 3.85507246,5.7082029 3.85507246,7.98597102 C3.85507246,10.2637391 5.7082029,12.1168985 7.986,12.1168985 C10.2637971,12.1168985 12.1169275,10.2637681 12.1169275,7.98597102 C12.1169275,5.70817391 10.2637971,3.85507246 7.986,3.85507246 Z M7.986,10.5101449 C6.59194203,10.5101449 5.46185507,9.38005797 5.46185507,7.986 C5.46185507,6.59194203 6.59197102,5.46185507 7.986,5.46185507 C9.38005797,5.46185507 10.5101449,6.59194203 10.5101449,7.986 C10.5101449,9.38002898 9.38002898,10.5101449 7.986,10.5101449 Z" id="XMLID_81_"></path>
                <circle id="XMLID_83_" cx="12.1248116" cy="3.88614493" r="1"></circle>
            </g>
        </g>
    </g>
</svg>