<?xml version="1.0" encoding="UTF-8"?>
<svg width="37px" height="37px" viewBox="0 0 37 37" version="1.1" xmlns="http://www.w3.org/2000/svg" xmlns:xlink="http://www.w3.org/1999/xlink">
    <!-- Generator: Sketch 48.2 (47327) - http://www.bohemiancoding.com/sketch -->
    <title>Group 22</title>
    <desc>Created with Sketch.</desc>
    <defs></defs>
    <g id="Page-1" stroke="none" stroke-width="1" fill="none" fill-rule="evenodd">
        <g id="Group-22" fill="#0077B5">
            <path d="M18.8364285,36.9678571 C8.89505408,36.9678571 0.836428549,28.9087342 0.836428549,18.9678571 C0.836428549,9.02698005 8.89505408,0.96785712 18.8364285,0.96785712 C28.777803,0.96785712 36.8364285,9.02698005 36.8364285,18.9678571 C36.8364285,28.9087342 28.777803,36.9678571 18.8364285,36.9678571 Z M18.8364285,34.907251 C27.6381069,34.907251 34.7737277,27.7711897 34.7737277,18.9678571 C34.7737277,10.1645245 27.6381069,3.02846322 18.8364285,3.02846322 C10.0347502,3.02846322 2.89912937,10.1645245 2.89912937,18.9678571 C2.89912937,27.7711897 10.0347502,34.907251 18.8364285,34.907251 Z" id="Oval-7-Copy-4" fill-rule="nonzero"></path>
            <g id="linkedin-logo-(2)" transform="translate(11.560000, 11.714286)">
                <path d="M15.7485714,8.93373129 L15.7485714,14.5714286 L12.3731426,14.5714286 L12.3731426,9.31131027 C12.3731426,7.98992567 11.8849233,7.08813235 10.6631299,7.08813235 C9.73044568,7.08813235 9.17540462,7.69587496 8.9312217,8.28376365 C8.84217494,8.49393156 8.81925419,8.78645776 8.81925419,9.08065029 L8.81925419,14.5714286 L5.44269035,14.5714286 C5.44269035,14.5714286 5.48816571,5.66251468 5.44269035,4.73948476 L8.81892466,4.73948476 L8.81892466,6.13312344 C8.81207772,6.14354675 8.80318037,6.15478548 8.7967362,6.16488971 L8.81892466,6.16488971 L8.81892466,6.13312344 C9.26749039,5.46415276 10.0685817,4.50850569 11.861673,4.50850569 C14.083192,4.50847024 15.7485714,5.91373765 15.7485714,8.93373129 Z M1.91066083,0 C0.755542728,0 0,0.733637723 0,1.69839632 C0,2.64213104 0.733683798,3.39803352 1.86584453,3.39803352 L1.88839914,3.39803352 C3.06588877,3.39803352 3.79818121,2.64227286 3.79818121,1.69839632 C3.77599275,0.733637723 3.06588877,0 1.91066083,0 Z M0.200538285,14.5714286 L3.57582061,14.5714286 L3.57582061,4.73948476 L0.200538285,4.73948476 L0.200538285,14.5714286 Z" id="LinkedIn"></path>
            </g>
        </g>
    </g>
</svg>