<?xml version="1.0" encoding="UTF-8"?>
<svg width="37px" height="37px" viewBox="0 0 37 37" version="1.1" xmlns="http://www.w3.org/2000/svg" xmlns:xlink="http://www.w3.org/1999/xlink">
    <!-- Generator: Sketch 48.2 (47327) - http://www.bohemiancoding.com/sketch -->
    <title>Group 21</title>
    <desc>Created with Sketch.</desc>
    <defs></defs>
    <g id="Page-1" stroke="none" stroke-width="1" fill="none" fill-rule="evenodd">
        <g id="Group-21" fill="#1DA1F2">
            <path d="M27.3236598,14.5071156 C27.1915529,14.6864503 27.0537762,14.8530618 26.9097627,15.0069503 C26.7657491,15.1602329 26.609829,15.3141214 26.4420022,15.4680099 C26.2741755,15.6218984 26.1063487,15.7630638 25.9385219,15.8909003 L25.9385219,16.0066196 C25.9385219,16.0320658 25.9441917,16.070235 25.9560984,16.1217331 C25.968572,16.1732312 25.9742418,16.2114004 25.9742418,16.2368465 L25.9742418,16.390735 C25.9742418,17.5951851 25.7582215,18.8323516 25.326748,20.1010229 C24.8947074,21.3696941 24.2591202,22.5038644 23.4199864,23.5029279 C22.5802855,24.5025972 21.5432748,25.3295964 20.3078203,25.9827137 C19.0723658,26.6364369 17.6634147,26.9502725 16.0804,26.9248263 C15.5763527,26.9502725 15.0910158,26.9187677 14.6232554,26.8284946 C14.155495,26.7388272 13.6934044,26.6303783 13.2381176,26.5019359 C12.7822638,26.3740994 12.3502232,26.2008234 11.9425629,25.9827137 C11.5349026,25.7652099 11.1272423,25.5410416 10.719582,25.3102089 C10.7915888,25.2847628 10.8635955,25.2780983 10.9356023,25.2908214 C11.0070421,25.3035444 11.0790488,25.3102089 11.1510556,25.3102089 C11.2230623,25.3102089 11.2950691,25.3162675 11.3670759,25.3295964 C11.4390826,25.3423195 11.5110894,25.335655 11.5830961,25.3102089 C11.9907564,25.335655 12.3865101,25.3035444 12.7703571,25.2138771 C13.1542042,25.1242098 13.5255776,25.0218194 13.8856114,24.906706 C14.2450782,24.7909867 14.5932054,24.6243751 14.9288589,24.4068713 C15.2645124,24.1887617 15.5882594,23.9773165 15.9000996,23.7725357 C15.5168196,23.7210376 15.150549,23.6380347 14.8029888,23.5223154 C14.4554286,23.407202 14.1373516,23.2278674 13.8493245,22.9843116 C13.5618645,22.7407558 13.3157941,22.4717539 13.1122475,22.1766999 C12.9081338,21.8822519 12.7459769,21.5296412 12.6263436,21.1194739 C12.6745371,21.170972 12.7284004,21.1964181 12.7879336,21.1964181 C12.8480337,21.1964181 12.9081338,21.2030826 12.968234,21.2158057 C13.0277671,21.2285287 13.0821974,21.2285287 13.1298239,21.2158057 C13.1780174,21.2030826 13.2262109,21.2091412 13.2738375,21.2351932 C13.3696575,21.2091412 13.4535709,21.2030826 13.5255776,21.2158057 C13.5975844,21.2285287 13.6758279,21.2218643 13.7597413,21.1964181 C13.8436547,21.170972 13.9213313,21.1582489 13.993338,21.1582489 C14.0653448,21.1582489 14.1373516,21.1321969 14.2093583,21.0813047 C13.801698,21.0043604 13.4297576,20.850472 13.0941041,20.6196392 C12.7584505,20.3888065 12.4641867,20.1198046 12.2124465,19.8126334 C11.9607064,19.5048564 11.7628295,19.1461872 11.618816,18.7360199 C11.4748025,18.3258525 11.4027957,17.9029621 11.4027957,17.4673486 L11.4027957,17.4097919 C11.522996,17.4927947 11.6488661,17.5636804 11.780973,17.6018496 C11.9125129,17.6400187 12.0446197,17.6848524 12.1767266,17.7363505 C12.3082665,17.7878486 12.4403734,17.8199592 12.5724803,17.8326823 C12.7040202,17.8454054 12.8423639,17.8647929 12.9858104,17.890239 C12.7459769,17.6848524 12.5361934,17.4800717 12.35646,17.2752909 C12.1767266,17.0699043 12.0145697,16.8263485 11.8705562,16.5446235 C11.7271096,16.2628985 11.618816,15.9805677 11.5468093,15.6988427 C11.4748025,15.4171177 11.4390826,15.0966176 11.4390826,14.7379484 C11.4390826,14.609506 11.4509892,14.4556175 11.4748025,14.2762829 C11.4991827,14.0969483 11.5286658,13.9370012 11.5649527,13.7958358 C11.6012396,13.6546703 11.6488661,13.5007819 11.7089662,13.3341703 C11.7690663,13.1675587 11.8348363,13.0330578 11.906843,12.9306674 C12.3383166,13.4692771 12.8179837,13.9751704 13.3458442,14.4495589 C13.8737048,14.9233416 14.443522,15.3207859 15.054729,15.6412859 C15.6665029,15.961786 16.3083269,16.2241235 16.979634,16.4295101 C17.6515081,16.6342908 18.3471954,16.7494043 19.066696,16.7754562 C19.066696,16.7239581 19.0604592,16.6597369 19.0485526,16.5827927 C19.0366459,16.5064543 19.0241723,16.4355687 19.0122657,16.3713475 C19.0003591,16.3077322 18.9946892,16.2368465 18.9946892,16.1599023 L18.9946892,15.9678446 C18.9946892,15.4298407 19.0842724,14.9427291 19.2645728,14.5071156 C19.4443062,14.0715022 19.6903766,13.6740579 20.0016499,13.3153886 C20.3134902,12.9561135 20.6854306,12.6871116 21.1174711,12.507777 C21.5489447,12.3284424 22.0047985,12.226052 22.4844655,12.2 C22.724299,12.226052 22.9641326,12.2581626 23.2039661,12.2963318 C23.4437996,12.334501 23.6717265,12.4114452 23.8877468,12.5271645 C24.1032001,12.6422779 24.3073137,12.7707203 24.4989538,12.9112799 C24.6911608,13.0524453 24.8589875,13.2257213 25.0030011,13.4305021 C25.1946411,13.3535578 25.3868481,13.2893366 25.5784881,13.2384444 C25.7706951,13.1869463 25.9623352,13.1227251 26.1539752,13.0457808 C26.3461822,12.9694425 26.5259156,12.8858337 26.6937424,12.7961664 C26.8615692,12.7064991 27.0293959,12.5974443 27.1977897,12.4696078 C27.1495962,12.7258867 27.0713526,12.9433905 26.963626,13.1227251 C26.8558993,13.3020597 26.7419359,13.4880588 26.6217356,13.6807223 C26.5021024,13.87278 26.3580888,14.0327271 26.1902621,14.1611695 C26.0224353,14.289006 25.8546085,14.4301714 25.6862148,14.5840599 C25.8546085,14.5325618 26.0281051,14.4943926 26.2084055,14.4683406 C26.3881389,14.4428945 26.5622025,14.3980608 26.7300293,14.3338396 C26.897856,14.2696184 27.059446,14.2120617 27.2153661,14.1611695 C27.3712863,14.1096714 27.5334432,14.0454502 27.70127,13.9685059 C27.5816367,14.1611695 27.4551997,14.327781 27.3236598,14.5071156 Z" id="tw"></path>
            <path d="M18.6305389,36.9678571 C8.68916442,36.9678571 0.630538889,28.9087342 0.630538889,18.9678571 C0.630538889,9.02698005 8.68916442,0.96785712 18.6305389,0.96785712 C28.5719134,0.96785712 36.6305389,9.02698005 36.6305389,18.9678571 C36.6305389,28.9087342 28.5719134,36.9678571 18.6305389,36.9678571 Z M18.6305389,34.907251 C27.4322172,34.907251 34.5678381,27.7711897 34.5678381,18.9678571 C34.5678381,10.1645245 27.4322172,3.02846322 18.6305389,3.02846322 C9.82886057,3.02846322 2.69323971,10.1645245 2.69323971,18.9678571 C2.69323971,27.7711897 9.82886057,34.907251 18.6305389,34.907251 Z" id="Oval-7-Copy-2" fill-rule="nonzero"></path>
        </g>
    </g>
</svg>