<?xml version="1.0" encoding="UTF-8"?>
<svg width="20px" height="20px" viewBox="0 0 20 20" version="1.1" xmlns="http://www.w3.org/2000/svg" xmlns:xlink="http://www.w3.org/1999/xlink">
    <!-- Generator: Sketch 48.2 (47327) - http://www.bohemiancoding.com/sketch -->
    <title>whatsapp</title>
    <desc>Created with Sketch.</desc>
    <defs></defs>
    <g id="live-blog-mobile" stroke="none" stroke-width="1" fill="none" fill-rule="evenodd" transform="translate(-257.000000, -632.000000)">
        <g id="whatsapp" transform="translate(257.000000, 632.000000)" fill="#5F5F5F">
            <path d="M9.51581731,0.0115513126 C4.20673077,0.262529833 0.0171153846,4.65231504 0.0332211538,9.92935561 C0.038125,11.536611 0.428942308,13.0536516 1.11836538,14.3940811 L0.0598557692,19.4954177 C0.00259615385,19.7713604 0.253269231,20.0129833 0.529375,19.9480668 L5.56413462,18.7637709 C6.85764423,19.4034845 8.31052885,19.7729833 9.84817308,19.7962768 C15.2745673,19.878568 19.7992308,15.600716 19.9683654,10.215179 C20.1496635,4.44224344 15.3507212,-0.264343675 9.51581731,0.0115513126 Z M15.5233654,15.3793317 C14.0488942,16.8432458 12.0884615,17.6494511 10.0032692,17.6494511 C8.78230769,17.6494511 7.61336538,17.3774702 6.52879808,16.8410979 L5.82764423,16.4943198 L2.74081731,17.2204296 L3.39057692,14.0888305 L3.04514423,13.4172315 C2.48211538,12.3224821 2.19663462,11.1386635 2.19663462,9.89871122 C2.19663462,7.82840095 3.00865385,5.88205251 4.483125,4.41809069 C5.94442308,2.96725537 7.93682692,2.14792363 10.0034135,2.14792363 C12.0886058,2.14797136 14.0489423,2.95417661 15.5234135,4.41804296 C16.9978846,5.88195704 17.8099038,7.82830549 17.8099519,9.89856802 C17.8099038,11.9504057 16.9846635,13.9285442 15.5233654,15.3793317 Z" id="Shape"></path>
            <path d="M14.8419231,12.0453938 L12.9107212,11.4948449 C12.6568269,11.4224821 12.3834135,11.4939857 12.1984135,11.6811456 L11.7261538,12.1588544 C11.5270192,12.3602864 11.2248558,12.4250119 10.9612981,12.3191408 C10.0477404,11.9520764 8.12600962,10.2556563 7.63524038,9.40711217 C7.49365385,9.1623389 7.51706731,8.85632458 7.69091346,8.63298329 L8.10322115,8.10338902 C8.26475962,7.89589499 8.29884615,7.6172315 8.19201923,7.3773747 L7.37951923,5.55288783 C7.18490385,5.11589499 6.62245192,4.98868735 6.255,5.2972315 C5.71600962,5.74983294 5.07649038,6.43761337 4.99875,7.19957041 C4.86168269,8.54295943 5.44197115,10.23642 7.63634615,12.2698329 C10.1714423,14.6189976 12.2015385,14.9293556 13.5233173,14.6114558 C14.2730288,14.4311695 14.8721635,13.708401 15.2502885,13.116611 C15.5080769,12.7131265 15.3045192,12.1772792 14.8419231,12.0453938 Z" id="Shape"></path>
        </g>
    </g>
</svg>